HIERARCHY
ROOT Hips
{
	OFFSET 0.000000 0.000000 0.000000
	CHANNELS 6 Xposition Yposition Zposition Zrotation Yrotation Xrotation 
	JOINT LHipJoint
	{
		OFFSET 0.000000 0.000000 0.000000
		CHANNELS 3 Zrotation Yrotation Xrotation
		JOINT LeftUpLeg
		{
			OFFSET 1.363060 -1.794630 0.839290
			CHANNELS 3 Zrotation Yrotation Xrotation
			JOINT LeftLeg
			{
				OFFSET 2.448110 -6.726130 0.000000
				CHANNELS 3 Zrotation Yrotation Xrotation
				JOINT LeftFoot
				{
					OFFSET 2.562200 -7.039590 0.000000
					CHANNELS 3 Zrotation Yrotation Xrotation
					JOINT LeftToeBase
					{
						OFFSET 0.157640 -0.433110 2.322550
						CHANNELS 3 Zrotation Yrotation Xrotation
						End Site
						{
							OFFSET 0.000000 0.000000 0.000000
						}
					}
				}
			}
		}
	}
	JOINT RHipJoint
	{
		OFFSET 0.000000 0.000000 0.000000
		CHANNELS 3 Zrotation Yrotation Xrotation
		JOINT RightUpLeg
		{
			OFFSET -1.305520 -1.794630 0.839290
			CHANNELS 3 Zrotation Yrotation Xrotation
			JOINT RightLeg
			{
				OFFSET -2.542530 -6.985550 0.000000
				CHANNELS 3 Zrotation Yrotation Xrotation
				JOINT RightFoot
				{
					OFFSET -2.568260 -7.056230 0.000000
					CHANNELS 3 Zrotation Yrotation Xrotation
					JOINT RightToeBase
					{
						OFFSET -0.164730 -0.452590 2.363150
						CHANNELS 3 Zrotation Yrotation Xrotation
						End Site
						{
							OFFSET 0.000000 0.000000 0.000000
						}
					}
				}
			}
		}
	}
	JOINT LowerBack
	{
		OFFSET 0.000000 0.000000 0.000000
		CHANNELS 3 Zrotation Yrotation Xrotation
		JOINT Spine
		{
			OFFSET 0.028270 2.035590 -0.193380
			CHANNELS 3 Zrotation Yrotation Xrotation
			JOINT Spine1
			{
				OFFSET 0.056720 2.048850 -0.042750
				CHANNELS 3 Zrotation Yrotation Xrotation
				JOINT Neck
				{
					OFFSET 0.000000 0.000000 0.000000
					CHANNELS 3 Zrotation Yrotation Xrotation
					JOINT Neck1
					{
						OFFSET -0.054170 1.746240 0.172020
						CHANNELS 3 Zrotation Yrotation Xrotation
						JOINT Head
						{
							OFFSET 0.104070 1.761360 -0.123970
							CHANNELS 3 Zrotation Yrotation Xrotation
							End Site
							{
								OFFSET 0.000000 0.000000 0.000000
							}
						}
					}
				}
				JOINT LeftShoulder
				{
					OFFSET 0.000000 0.000000 0.000000
					CHANNELS 3 Zrotation Yrotation Xrotation
					JOINT LeftArm
					{
						OFFSET 3.362410 1.200890 -0.311210
						CHANNELS 3 Zrotation Yrotation Xrotation
						JOINT LeftForeArm
						{
							OFFSET 4.983000 -0.000000 -0.000000
							CHANNELS 3 Zrotation Yrotation Xrotation
							JOINT LeftHand
							{
								OFFSET 3.483560 -0.000000 -0.000000
								CHANNELS 3 Zrotation Yrotation Xrotation
								JOINT LeftFingerBase
								{
									OFFSET 0.000000 0.000000 0.000000
									CHANNELS 3 Zrotation Yrotation Xrotation
									JOINT LeftHandIndex1
									{
										OFFSET 0.715260 -0.000000 -0.000000
										CHANNELS 3 Zrotation Yrotation Xrotation
										End Site
										{
											OFFSET 0.000000 0.000000 0.000000
										}
									}
								}
								JOINT LThumb
								{
									OFFSET 0.000000 0.000000 0.000000
									CHANNELS 3 Zrotation Yrotation Xrotation
									End Site
									{
										OFFSET 0.000000 0.000000 0.000000
									}
								}
							}
						}
					}
				}
				JOINT RightShoulder
				{
					OFFSET 0.000000 0.000000 0.000000
					CHANNELS 3 Zrotation Yrotation Xrotation
					JOINT RightArm
					{
						OFFSET -3.136600 1.374050 -0.404650
						CHANNELS 3 Zrotation Yrotation Xrotation
						JOINT RightForeArm
						{
							OFFSET -5.241900 -0.000000 -0.000000
							CHANNELS 3 Zrotation Yrotation Xrotation
							JOINT RightHand
							{
								OFFSET -3.444170 -0.000000 -0.000000
								CHANNELS 3 Zrotation Yrotation Xrotation
								JOINT RightFingerBase
								{
									OFFSET 0.000000 0.000000 0.000000
									CHANNELS 3 Zrotation Yrotation Xrotation
									JOINT RightHandIndex1
									{
										OFFSET -0.622530 -0.000000 -0.000000
										CHANNELS 3 Zrotation Yrotation Xrotation
										End Site
										{
											OFFSET 0.000000 0.000000 0.000000
										}
									}
								}
								JOINT RThumb
								{
									OFFSET 0.000000 0.000000 0.000000
									CHANNELS 3 Zrotation Yrotation Xrotation
									End Site
									{
										OFFSET 0.000000 0.000000 0.000000
									}
								}
							}
						}
					}
				}
			}
		}
	}
}
MOTION
Frames: 8
Frame Time: 0.008333
2.348545 17.122787 2.020189 -5.593838 -75.387053 18.706372 -9.790546 -0.103582 3.247080 -8.657875 -15.287022 -24.496686 -1.040755 0.363763 25.173193 2.495042 12.530844 -11.858696 -0.792200 -0.000001 -26.179400 9.768503 0.145828 -0.792395 3.858383 0.018153 -29.126597 -0.899636 -2.989928 48.906608 -4.676834 -26.299375 6.553881 -7.679800 -0.000000 -66.009000 -6.471510 -2.394837 -0.620610 -2.060994 -2.070399 -2.789824 -6.667795 -2.083348 0.901145 11.250151 -13.811488 -9.006159 -1.788976 -0.112898 -0.409019 0.000000 0.000000 0.000000 2.235732 7.850905 1.009159 -54.605820 11.591337 22.396077 -2.041037 -59.054413 0.015109 -3.207703 -8.924590 0.250491 -0.048741 0.101200 0.000000 0.000000 0.000000 0.000000 0.000000 0.000000 0.000000 10.509465 -10.191056 1.298376 70.239325 -4.258308 15.222932 2.955680 37.837301 0.027751 2.939731 13.365899 0.338800 0.086183 -0.117897 0.000000 0.000000 0.000000 0.000000 0.000000 0.000000 0.000000 
2.355900 17.119513 2.043654 -6.389037 -74.991829 19.197325 -9.839979 -0.129642 3.207167 -8.498998 -15.240319 -24.287860 -1.028886 0.388771 25.451686 2.455311 12.314711 -11.987225 -0.822800 -0.000000 -26.309200 9.805842 0.210259 -0.859699 4.068067 -0.063989 -30.647670 -1.019256 -3.193220 51.978276 -4.599639 -26.082580 7.219073 -7.784100 -0.000000 -64.972700 -6.345967 -2.422299 -0.507886 -2.043015 -2.107160 -2.774367 -6.702985 -2.117733 0.863026 11.225924 -13.754450 -8.970133 -1.788389 -0.113166 -0.400796 0.000000 0.000000 0.000000 2.259538 7.619021 1.028132 -54.073393 11.000131 23.010273 -2.005723 -59.390927 0.015093 -3.225193 -8.897766 0.251293 -0.047327 0.104630 0.000000 0.000000 0.000000 0.000000 0.000000 0.000000 0.000000 10.448157 -10.151661 1.318367 70.394924 -4.525424 15.281016 2.962542 37.584943 0.027414 3.059954 13.336092 0.352383 0.084557 -0.115495 0.000000 0.000000 0.000000 0.000000 0.000000 0.000000 0.000000 
2.363788 17.116788 2.067095 -7.216253 -74.580432 19.718218 -9.893468 -0.151208 3.177489 -8.313405 -15.177694 -24.094327 -1.016271 0.412200 25.713424 2.411608 12.077012 -12.101913 -0.847400 0.000000 -26.467899 9.841263 0.275748 -0.942714 4.324773 -0.261847 -32.241656 -1.136014 -3.397884 55.027762 -4.516336 -25.751305 7.558479 -7.717800 0.000001 -63.743800 -6.194789 -2.455654 -0.399597 -2.019169 -2.151381 -2.759305 -6.735789 -2.159705 0.827631 11.199744 -13.694594 -8.930760 -1.787086 -0.113436 -0.391446 0.000000 0.000000 0.000000 2.284802 7.376997 1.051162 -53.547066 10.369803 23.612820 -1.974945 -59.654061 0.015117 -3.234878 -8.876899 0.251697 -0.046211 0.108002 0.000000 0.000000 0.000000 0.000000 0.000000 0.000000 0.000000 10.380262 -10.115823 1.336836 70.530619 -4.774666 15.362362 2.968990 37.333953 0.027057 3.177872 13.306052 0.365564 0.082923 -0.113025 0.000000 0.000000 0.000000 0.000000 0.000000 0.000000 0.000000 
2.372475 17.114653 2.090729 -8.077119 -74.154388 20.273459 -9.950533 -0.169713 3.160367 -8.096701 -15.118156 -23.919993 -1.000907 0.434250 25.963894 2.367426 11.837244 -12.203998 -0.867200 0.000001 -26.648600 9.873014 0.343289 -1.042473 4.629249 -0.568429 -33.910043 -1.253351 -3.606163 58.043323 -4.429260 -25.329734 7.562436 -7.493601 0.000000 -62.421400 -6.014255 -2.493613 -0.296321 -1.988435 -2.201905 -2.744491 -6.764693 -2.208087 0.796278 11.167160 -13.631979 -8.888770 -1.784094 -0.113618 -0.381168 0.000000 0.000000 0.000000 2.310786 7.130901 1.078839 -53.035034 9.689272 24.204184 -1.949513 -59.832216 0.015189 -3.235923 -8.862174 0.251503 -0.045462 0.111331 0.000000 0.000000 0.000000 0.000000 0.000000 0.000000 0.000000 10.297028 -10.082948 1.353491 70.650310 -5.001264 15.457386 2.975145 37.081695 0.026686 3.288233 13.276146 0.377745 0.081331 -0.110523 0.000000 0.000000 0.000000 0.000000 0.000000 0.000000 0.000000 
2.382060 17.113283 2.114860 -8.986999 -73.719680 20.881020 -10.011820 -0.187157 3.155711 -7.842360 -15.072393 -23.764435 -0.980783 0.454965 26.208737 2.325939 11.613091 -12.297861 -0.884100 -0.000000 -26.831600 9.898138 0.413060 -1.156701 4.985591 -0.959176 -35.649739 -1.374435 -3.818783 61.009884 -4.341642 -24.853370 7.259725 -7.144100 -0.000000 -61.203800 -5.796040 -2.532302 -0.199666 -1.949838 -2.255380 -2.734030 -6.791975 -2.260156 0.754673 11.121441 -13.541198 -8.830385 -1.782398 -0.114200 -0.365983 0.000000 0.000000 0.000000 2.326926 6.818198 1.110978 -52.539495 9.051928 24.726740 -1.927591 -59.968043 0.015240 -3.250942 -8.826164 0.251807 -0.044681 0.114244 0.000000 0.000000 0.000000 0.000000 0.000000 0.000000 0.000000 10.192499 -10.021427 1.373895 70.763915 -5.245216 15.498285 2.982450 36.848475 0.026296 3.412099 13.235075 0.391226 0.079640 -0.108088 0.000000 0.000000 0.000000 0.000000 0.000000 0.000000 0.000000 
2.393006 17.112590 2.139584 -9.932240 -73.280477 21.527757 -10.076085 -0.205099 3.163936 -7.553398 -15.059701 -23.628261 -0.954662 0.474961 26.454332 2.290632 11.424851 -12.384970 -0.899500 0.000000 -27.019400 9.915585 0.487494 -1.286499 5.385950 -1.424775 -37.464969 -1.501679 -4.037451 63.927271 -4.251315 -24.322221 6.676742 -6.687100 -0.000000 -60.095200 -5.542974 -2.571047 -0.106812 -1.902780 -2.310719 -2.723002 -6.812195 -2.314101 0.719961 11.061128 -13.448733 -8.772143 -1.777082 -0.114492 -0.350693 0.000000 0.000000 0.000000 2.346440 6.518081 1.148600 -52.077083 8.338419 25.240631 -1.912666 -59.995742 0.015374 -3.255156 -8.804392 0.251715 -0.044403 0.117217 0.000000 0.000000 0.000000 0.000000 0.000000 0.000000 0.000000 10.056716 -9.961094 1.392106 70.867180 -5.456196 15.540282 2.989548 36.613028 0.025907 3.516514 13.197136 0.402407 0.078099 -0.105721 0.000000 0.000000 0.000000 0.000000 0.000000 0.000000 0.000000 
2.405542 17.112676 2.165079 -10.929395 -72.846989 22.227866 -10.144332 -0.225750 3.181452 -7.227598 -15.081562 -23.503739 -0.921432 0.494419 26.702748 2.263601 11.285402 -12.468705 -0.915300 -0.000000 -27.187900 9.922487 0.566813 -1.428390 5.830151 -1.931640 -39.348845 -1.636998 -4.261745 66.785101 -4.158733 -23.753366 5.873948 -6.158300 0.000000 -59.227000 -5.249400 -2.605246 -0.016170 -1.846729 -2.363648 -2.713941 -6.827068 -2.366069 0.681305 10.982102 -13.338030 -8.704462 -1.770193 -0.114828 -0.332578 0.000000 0.000000 0.000000 2.362014 6.184942 1.190969 -51.651118 7.620987 25.699323 -1.903114 -59.950776 0.015528 -3.267034 -8.773158 0.251823 -0.044289 0.119952 0.000000 0.000000 0.000000 0.000000 0.000000 0.000000 0.000000 9.885983 -9.879500 1.412694 70.965651 -5.660437 15.538791 2.997589 36.392036 0.025520 3.616787 13.154344 0.412788 0.076616 -0.103509 0.000000 0.000000 0.000000 0.000000 0.000000 0.000000 0.000000 
2.419891 17.113602 2.191435 -11.976892 -72.426981 22.977740 -10.216670 -0.250338 3.204738 -6.868115 -15.138880 -23.382842 -0.880890 0.513702 26.954495 2.246164 11.203596 -12.549952 -0.932500 0.000001 -27.335400 9.917455 0.651886 -1.580380 6.311943 -2.456722 -41.296185 -1.781745 -4.491375 69.579383 -4.061409 -23.141696 4.908530 -5.582900 0.000000 -58.619400 -4.916496 -2.632507 0.075821 -1.781818 -2.411617 -2.705836 -6.835531 -2.413417 0.639897 10.883565 -13.210791 -8.629109 -1.761072 -0.115123 -0.312226 0.000000 0.000000 0.000000 2.377129 5.828358 1.237798 -51.269500 6.890219 26.103012 -1.899361 -59.827335 0.015715 -3.284911 -8.738979 0.252332 -0.044377 0.122530 0.000000 0.000000 0.000000 0.000000 0.000000 0.000000 0.000000 9.677699 -9.776752 1.435533 71.057685 -5.850372 15.499938 3.006412 36.186258 0.025149 3.707365 13.109856 0.421970 0.075238 -0.101495 0.000000 0.000000 0.000000 0.000000 0.000000 0.000000 0.000000 
